<svg xmlns="http://www.w3.org/2000/svg" version="1.1" xmlns:xlink="http://www.w3.org/1999/xlink" xmlns:svgjs="http://svgjs.dev/svgjs" width="1500" height="1500" viewBox="0 0 1500 1500"><rect width="1500" height="1500" fill="#ffffff"></rect><g transform="matrix(0.6666666666666666,0,0,0.6666666666666666,250.10666666666668,533.4846533333333)"><svg viewBox="0 0 375 162" data-background-color="#ffffff" preserveAspectRatio="xMidYMid meet" height="648" width="1500" xmlns="http://www.w3.org/2000/svg" xmlns:xlink="http://www.w3.org/1999/xlink"><g id="tight-bounds" transform="matrix(1,0,0,1,-0.03976000000000113,0.19325499999999352)"><svg viewBox="0 0 375.07953 161.61323" height="161.61323" width="375.07953"><g><svg></svg></g><g><svg viewBox="0 0 375.07953 161.61323" height="161.61323" width="375.07953"><g transform="matrix(1,0,0,1,-10.22024,-44.03451000000001)"><path d="M10.22 203.165v-159.13h375.08v159.13h-37.04l0-3.569h33.47v-151.992h-367.94v151.992l119.509 0 0 3.569z" fill="#113946" fill-rule="nonzero" stroke="none" stroke-width="1" stroke-linecap="butt" stroke-linejoin="miter" stroke-miterlimit="10" stroke-dasharray="" stroke-dashoffset="0" font-family="none" font-weight="none" font-size="none" text-anchor="none" style="mix-blend-mode: normal" data-fill-palette-color="tertiary"></path><g><path d="M144.007 195.958h2.028c0.554 0 1.026 0.092 1.419 0.277 0.392 0.186 0.696 0.455 0.91 0.805 0.213 0.35 0.319 0.774 0.32 1.272v0c0 0.301-0.046 0.597-0.137 0.887-0.091 0.291-0.236 0.554-0.435 0.788-0.2 0.235-0.462 0.423-0.784 0.564-0.322 0.14-0.715 0.21-1.177 0.21v0h-1.125v2.795h-1.019zM145.026 199.783h1.114c0.301 0 0.55-0.049 0.747-0.147 0.196-0.098 0.35-0.223 0.462-0.374 0.112-0.15 0.193-0.309 0.242-0.477 0.049-0.168 0.074-0.319 0.073-0.452v0c0-0.154-0.025-0.314-0.073-0.479-0.049-0.164-0.131-0.315-0.246-0.452-0.116-0.136-0.267-0.248-0.452-0.336-0.186-0.087-0.416-0.13-0.69-0.131v0h-1.177zM152.036 203.661v0c-0.497 0-0.925-0.1-1.282-0.3-0.357-0.199-0.632-0.472-0.824-0.82-0.193-0.346-0.29-0.743-0.29-1.192v0c0-0.427 0.109-0.816 0.326-1.166 0.217-0.35 0.508-0.631 0.872-0.841 0.364-0.21 0.771-0.315 1.219-0.315v0c0.575 0 1.051 0.168 1.43 0.504 0.378 0.336 0.634 0.799 0.767 1.387v0l-3.584 1.262-0.231-0.578 2.942-1.072-0.21 0.136c-0.084-0.231-0.224-0.433-0.42-0.605-0.196-0.171-0.452-0.256-0.767-0.257v0c-0.266 0-0.504 0.064-0.715 0.194-0.21 0.13-0.375 0.308-0.494 0.532-0.119 0.224-0.179 0.48-0.179 0.767v0c0 0.301 0.063 0.565 0.19 0.792 0.126 0.228 0.299 0.408 0.519 0.538 0.221 0.129 0.472 0.193 0.752 0.194v0c0.189 0 0.373-0.035 0.553-0.105 0.178-0.07 0.344-0.161 0.498-0.274v0l0.452 0.725c-0.217 0.147-0.461 0.266-0.731 0.358-0.269 0.091-0.533 0.137-0.793 0.136zM155.483 199.205h0.873l0.094 1.261-0.052-0.168c0.112-0.266 0.275-0.493 0.487-0.679 0.214-0.185 0.439-0.329 0.673-0.43 0.235-0.101 0.441-0.151 0.616-0.152v0l-0.053 0.967c-0.329-0.021-0.619 0.042-0.868 0.189-0.248 0.147-0.444 0.343-0.588 0.589-0.143 0.245-0.214 0.508-0.215 0.788v0 1.986h-0.967zM160.654 203.64v0c-0.308 0-0.607-0.055-0.897-0.164-0.291-0.108-0.532-0.27-0.721-0.487v0l0.41-0.568c0.182 0.175 0.37 0.306 0.563 0.393 0.192 0.088 0.383 0.132 0.572 0.133v0c0.14 0 0.27-0.018 0.388-0.053 0.119-0.035 0.216-0.093 0.291-0.174 0.073-0.08 0.109-0.19 0.109-0.33v0c0-0.154-0.05-0.277-0.152-0.368-0.102-0.091-0.233-0.165-0.39-0.221-0.157-0.056-0.323-0.109-0.499-0.157v0c-0.357-0.119-0.631-0.284-0.819-0.494-0.189-0.21-0.284-0.466-0.284-0.768v0c0-0.231 0.057-0.447 0.172-0.647 0.116-0.199 0.289-0.362 0.517-0.488 0.227-0.126 0.509-0.189 0.845-0.189v0c0.301 0 0.571 0.036 0.809 0.11 0.238 0.074 0.462 0.195 0.673 0.363v0l-0.389 0.61c-0.126-0.133-0.277-0.231-0.452-0.295-0.175-0.063-0.333-0.098-0.473-0.105v0c-0.119-0.007-0.233 0.011-0.34 0.053-0.109 0.042-0.199 0.102-0.269 0.179-0.07 0.077-0.105 0.168-0.105 0.273v0c0 0.147 0.049 0.266 0.147 0.357 0.098 0.091 0.226 0.163 0.385 0.215 0.157 0.053 0.312 0.108 0.466 0.163v0c0.217 0.063 0.41 0.147 0.578 0.253 0.168 0.105 0.303 0.235 0.404 0.389 0.102 0.154 0.153 0.347 0.153 0.578v0c0 0.259-0.061 0.499-0.183 0.718-0.123 0.221-0.31 0.397-0.559 0.526-0.248 0.13-0.565 0.195-0.95 0.195zM163.334 201.339v0c0-0.434 0.104-0.827 0.311-1.177 0.206-0.35 0.491-0.627 0.856-0.831 0.364-0.203 0.778-0.305 1.24-0.304v0c0.476 0 0.893 0.102 1.25 0.304 0.357 0.203 0.634 0.48 0.831 0.831 0.196 0.35 0.294 0.743 0.294 1.177v0c0 0.434-0.098 0.828-0.294 1.181-0.196 0.355-0.474 0.633-0.835 0.837-0.362 0.203-0.781 0.305-1.257 0.304v0c-0.462 0-0.874-0.097-1.234-0.29-0.362-0.192-0.645-0.462-0.851-0.809-0.207-0.346-0.311-0.754-0.311-1.223zM164.311 201.349v0c0 0.28 0.063 0.534 0.19 0.761 0.126 0.228 0.296 0.409 0.51 0.543 0.213 0.133 0.449 0.2 0.709 0.199v0c0.273 0 0.517-0.067 0.731-0.199 0.213-0.133 0.379-0.314 0.498-0.543 0.119-0.227 0.179-0.481 0.179-0.761v0c0-0.28-0.06-0.535-0.179-0.763-0.119-0.227-0.285-0.409-0.498-0.546-0.214-0.136-0.458-0.204-0.731-0.204v0c-0.266 0-0.506 0.07-0.719 0.21-0.214 0.14-0.383 0.324-0.505 0.551-0.123 0.228-0.185 0.479-0.185 0.752zM169.44 199.205h0.872l0.085 1.062-0.042-0.168c0.14-0.322 0.368-0.58 0.683-0.774 0.315-0.192 0.68-0.288 1.093-0.288v0c0.413 0 0.752 0.121 1.015 0.362 0.262 0.242 0.397 0.556 0.403 0.941v0 3.216h-0.987v-2.869c-0.007-0.238-0.075-0.433-0.204-0.584-0.13-0.15-0.332-0.225-0.606-0.225v0c-0.252 0-0.48 0.07-0.683 0.21-0.203 0.14-0.362 0.333-0.477 0.578-0.116 0.245-0.174 0.529-0.174 0.851v0 2.039h-0.978zM177.06 203.661v0c-0.406 0-0.776-0.088-1.108-0.262-0.334-0.175-0.596-0.432-0.788-0.772-0.193-0.341-0.29-0.756-0.29-1.246v0c0-0.483 0.102-0.902 0.304-1.255 0.203-0.355 0.475-0.626 0.816-0.816 0.339-0.189 0.712-0.284 1.118-0.283v0c0.406 0 0.75 0.092 1.03 0.277 0.28 0.186 0.494 0.406 0.641 0.658v0l-0.063 0.168 0.095-0.925h0.904v4.351h-0.978v-1.135l0.105 0.252c-0.028 0.07-0.089 0.159-0.183 0.267-0.095 0.109-0.221 0.22-0.378 0.333-0.158 0.112-0.339 0.205-0.542 0.277-0.203 0.074-0.431 0.111-0.683 0.111zM177.322 202.852v0c0.245 0 0.466-0.046 0.663-0.136 0.196-0.091 0.359-0.219 0.489-0.385 0.129-0.164 0.218-0.362 0.267-0.593v0-0.851c-0.056-0.21-0.154-0.394-0.294-0.553-0.14-0.157-0.308-0.279-0.505-0.366-0.196-0.088-0.413-0.132-0.651-0.132v0c-0.259 0-0.497 0.063-0.715 0.189-0.217 0.126-0.39 0.301-0.519 0.526-0.13 0.224-0.195 0.487-0.195 0.788v0c0 0.28 0.067 0.536 0.199 0.767 0.133 0.231 0.312 0.413 0.536 0.546 0.224 0.133 0.466 0.2 0.725 0.2zM181.411 203.556v-8.134h0.977v8.134zM184.08 203.556v-4.351h0.977v4.351zM184.007 197.629v0c0-0.154 0.062-0.284 0.184-0.389 0.122-0.105 0.256-0.158 0.404-0.158v0c0.147 0 0.279 0.053 0.395 0.158 0.115 0.105 0.172 0.235 0.173 0.389v0c0 0.161-0.057 0.292-0.173 0.393-0.116 0.102-0.248 0.153-0.395 0.153v0c-0.147 0-0.282-0.053-0.404-0.157-0.123-0.105-0.185-0.235-0.184-0.389zM189.02 200.004h-1.871c-0.217 0-0.403-0.067-0.557-0.2-0.154-0.133-0.231-0.333-0.231-0.599v0-0.41h0.746v0.137c0 0.112 0.028 0.186 0.084 0.221 0.056 0.035 0.147 0.053 0.273 0.052v0h2.785l-2.606 3.752-0.189-0.21h2.764v0.809h-4.025l2.658-3.825zM193.633 203.661v0c-0.497 0-0.925-0.1-1.282-0.3-0.357-0.199-0.632-0.472-0.824-0.82-0.193-0.346-0.29-0.743-0.29-1.192v0c0-0.427 0.109-0.816 0.326-1.166 0.217-0.35 0.508-0.631 0.872-0.841 0.364-0.21 0.771-0.315 1.219-0.315v0c0.575 0 1.051 0.168 1.43 0.504 0.378 0.336 0.634 0.799 0.767 1.387v0l-3.584 1.262-0.231-0.578 2.943-1.072-0.211 0.136c-0.084-0.231-0.224-0.433-0.42-0.605-0.196-0.171-0.452-0.256-0.767-0.257v0c-0.266 0-0.504 0.064-0.715 0.194-0.21 0.13-0.375 0.308-0.494 0.532-0.119 0.224-0.179 0.48-0.178 0.767v0c0 0.301 0.063 0.565 0.189 0.792 0.126 0.228 0.3 0.408 0.521 0.538 0.22 0.129 0.47 0.193 0.75 0.194v0c0.189 0 0.373-0.035 0.553-0.105 0.178-0.07 0.344-0.161 0.498-0.274v0l0.452 0.725c-0.217 0.147-0.46 0.266-0.729 0.358-0.27 0.091-0.535 0.137-0.795 0.136zM198.846 203.661v0c-0.399 0-0.762-0.097-1.087-0.29-0.327-0.192-0.584-0.465-0.773-0.819-0.189-0.353-0.284-0.761-0.284-1.224v0c0-0.483 0.099-0.897 0.299-1.24 0.2-0.343 0.472-0.606 0.815-0.788 0.343-0.182 0.729-0.273 1.156-0.273v0c0.343 0 0.671 0.074 0.984 0.22 0.311 0.147 0.554 0.35 0.729 0.61v0l-0.042 0.347v-4.782h0.967v8.134h-0.977v-1.082l0.105 0.273c-0.203 0.266-0.466 0.485-0.788 0.656-0.322 0.172-0.69 0.259-1.104 0.258zM199.151 202.831v0c0.259 0 0.49-0.048 0.693-0.143 0.203-0.094 0.371-0.225 0.505-0.393 0.133-0.168 0.228-0.368 0.284-0.599v0-0.82c-0.056-0.21-0.156-0.394-0.299-0.552-0.144-0.157-0.316-0.283-0.515-0.379-0.2-0.094-0.423-0.141-0.668-0.141v0c-0.266 0-0.51 0.064-0.732 0.194-0.22 0.13-0.397 0.308-0.529 0.532-0.133 0.224-0.2 0.483-0.2 0.777v0c0 0.287 0.067 0.544 0.2 0.772 0.133 0.228 0.312 0.411 0.536 0.548 0.224 0.136 0.466 0.204 0.725 0.204zM209.314 203.556h-2.439v-7.598h2.071c0.75 0 1.389 0.116 1.919 0.347 0.528 0.231 0.954 0.536 1.276 0.914 0.322 0.378 0.559 0.797 0.71 1.255 0.15 0.46 0.225 0.917 0.225 1.372v0c0 0.575-0.099 1.089-0.298 1.545-0.2 0.455-0.476 0.844-0.826 1.167-0.35 0.322-0.751 0.569-1.203 0.74-0.453 0.172-0.931 0.259-1.435 0.258zM207.895 196.935v5.644h1.219c0.42 0 0.808-0.063 1.162-0.189 0.353-0.126 0.661-0.308 0.925-0.547 0.262-0.238 0.467-0.531 0.614-0.878 0.147-0.346 0.221-0.74 0.221-1.182v0c0-0.469-0.077-0.881-0.232-1.236-0.154-0.353-0.364-0.649-0.63-0.887-0.266-0.238-0.568-0.419-0.904-0.542-0.336-0.122-0.69-0.183-1.061-0.183v0zM216.565 203.661v0c-0.497 0-0.925-0.1-1.282-0.3-0.357-0.199-0.632-0.472-0.824-0.82-0.193-0.346-0.29-0.743-0.29-1.192v0c0-0.427 0.109-0.816 0.326-1.166 0.217-0.35 0.508-0.631 0.872-0.841 0.364-0.21 0.771-0.315 1.219-0.315v0c0.575 0 1.051 0.168 1.43 0.504 0.378 0.336 0.634 0.799 0.767 1.387v0l-3.584 1.262-0.231-0.578 2.943-1.072-0.211 0.136c-0.084-0.231-0.224-0.433-0.42-0.605-0.196-0.171-0.452-0.256-0.767-0.257v0c-0.266 0-0.504 0.064-0.715 0.194-0.21 0.13-0.375 0.308-0.494 0.532-0.119 0.224-0.179 0.48-0.178 0.767v0c0 0.301 0.063 0.565 0.189 0.792 0.126 0.228 0.3 0.408 0.521 0.538 0.22 0.129 0.47 0.193 0.75 0.194v0c0.189 0 0.373-0.035 0.553-0.105 0.178-0.07 0.344-0.161 0.498-0.274v0l0.452 0.725c-0.217 0.147-0.46 0.266-0.729 0.358-0.27 0.091-0.535 0.137-0.795 0.136zM221.683 203.682h-0.052l-2.417-4.477h1.156l1.639 3.458-0.599-0.021 1.503-3.437h1.093zM224.574 201.339v0c0-0.434 0.104-0.827 0.311-1.177 0.206-0.35 0.491-0.627 0.855-0.831 0.364-0.203 0.778-0.305 1.24-0.304v0c0.476 0 0.893 0.102 1.251 0.304 0.357 0.203 0.634 0.48 0.83 0.831 0.196 0.35 0.294 0.743 0.294 1.177v0c0 0.434-0.098 0.828-0.294 1.181-0.196 0.355-0.474 0.633-0.834 0.837-0.362 0.203-0.781 0.305-1.257 0.304v0c-0.462 0-0.874-0.097-1.236-0.29-0.36-0.192-0.643-0.462-0.849-0.809-0.207-0.346-0.311-0.754-0.311-1.223zM225.551 201.349v0c0 0.28 0.063 0.534 0.189 0.761 0.126 0.228 0.296 0.409 0.511 0.543 0.213 0.133 0.449 0.2 0.708 0.199v0c0.273 0 0.516-0.067 0.73-0.199 0.214-0.133 0.381-0.314 0.5-0.543 0.119-0.227 0.179-0.481 0.179-0.761v0c0-0.28-0.06-0.535-0.179-0.763-0.119-0.227-0.286-0.409-0.5-0.546-0.213-0.136-0.456-0.204-0.73-0.204v0c-0.266 0-0.506 0.07-0.719 0.21-0.214 0.14-0.383 0.324-0.506 0.551-0.122 0.228-0.183 0.479-0.183 0.752zM231.1 199.226v-1.933h0.977v1.933h1.199v0.768h-1.199v3.562h-0.977v-3.562h-0.799v-0.768zM234.453 203.556v-4.351h0.977v4.351zM234.379 197.629v0c0-0.154 0.061-0.284 0.183-0.389 0.123-0.105 0.259-0.158 0.406-0.158v0c0.147 0 0.278 0.053 0.393 0.158 0.116 0.105 0.174 0.235 0.174 0.389v0c0 0.161-0.058 0.292-0.174 0.393-0.115 0.102-0.246 0.153-0.393 0.153v0c-0.147 0-0.282-0.053-0.406-0.157-0.122-0.105-0.183-0.235-0.183-0.389zM236.744 201.339v0c0-0.434 0.104-0.827 0.311-1.177 0.206-0.35 0.491-0.627 0.855-0.831 0.364-0.203 0.778-0.305 1.24-0.304v0c0.476 0 0.893 0.102 1.251 0.304 0.357 0.203 0.634 0.48 0.83 0.831 0.196 0.35 0.294 0.743 0.295 1.177v0c0 0.434-0.098 0.828-0.295 1.181-0.196 0.355-0.475 0.633-0.836 0.837-0.36 0.203-0.778 0.305-1.255 0.304v0c-0.462 0-0.874-0.097-1.236-0.29-0.36-0.192-0.643-0.462-0.849-0.809-0.207-0.346-0.311-0.754-0.311-1.223zM237.721 201.349v0c0 0.28 0.063 0.534 0.189 0.761 0.126 0.228 0.296 0.409 0.511 0.543 0.213 0.133 0.449 0.2 0.708 0.199v0c0.273 0 0.516-0.067 0.73-0.199 0.214-0.133 0.381-0.314 0.5-0.543 0.119-0.227 0.179-0.481 0.179-0.761v0c0-0.28-0.06-0.535-0.179-0.763-0.119-0.227-0.286-0.409-0.5-0.546-0.213-0.136-0.456-0.204-0.73-0.204v0c-0.266 0-0.507 0.07-0.721 0.21-0.213 0.14-0.381 0.324-0.504 0.551-0.122 0.228-0.183 0.479-0.183 0.752zM242.85 199.205h0.872l0.084 1.062-0.042-0.168c0.14-0.322 0.368-0.58 0.683-0.774 0.315-0.192 0.68-0.288 1.093-0.288v0c0.413 0 0.751 0.121 1.013 0.362 0.263 0.242 0.399 0.556 0.406 0.941v0 3.216h-0.988v-2.869c-0.007-0.238-0.076-0.433-0.206-0.584-0.129-0.15-0.33-0.225-0.603-0.225v0c-0.252 0-0.48 0.07-0.683 0.21-0.203 0.14-0.363 0.333-0.479 0.578-0.115 0.245-0.172 0.529-0.173 0.851v0 2.039h-0.977zM249.881 203.64v0c-0.308 0-0.608-0.055-0.9-0.164-0.29-0.108-0.53-0.27-0.719-0.487v0l0.41-0.568c0.182 0.175 0.369 0.306 0.561 0.393 0.193 0.088 0.385 0.132 0.574 0.133v0c0.14 0 0.27-0.018 0.389-0.053 0.119-0.035 0.215-0.093 0.288-0.174 0.074-0.08 0.111-0.19 0.111-0.33v0c0-0.154-0.051-0.277-0.153-0.368-0.101-0.091-0.231-0.165-0.389-0.221-0.157-0.056-0.323-0.109-0.498-0.157v0c-0.357-0.119-0.631-0.284-0.82-0.494-0.189-0.21-0.284-0.466-0.284-0.768v0c0-0.231 0.057-0.447 0.173-0.647 0.116-0.199 0.288-0.362 0.515-0.488 0.228-0.126 0.511-0.189 0.847-0.189v0c0.301 0 0.571 0.036 0.809 0.11 0.238 0.074 0.462 0.195 0.673 0.363v0l-0.389 0.61c-0.126-0.133-0.277-0.231-0.452-0.295-0.175-0.063-0.333-0.098-0.473-0.105v0c-0.119-0.007-0.233 0.011-0.343 0.053-0.108 0.042-0.197 0.102-0.267 0.179-0.07 0.077-0.105 0.168-0.105 0.273v0c0 0.147 0.049 0.266 0.148 0.357 0.098 0.091 0.226 0.163 0.382 0.215 0.158 0.053 0.315 0.108 0.469 0.163v0c0.217 0.063 0.41 0.147 0.578 0.253 0.168 0.105 0.303 0.235 0.403 0.389 0.102 0.154 0.153 0.347 0.154 0.578v0c0 0.259-0.062 0.499-0.185 0.718-0.122 0.221-0.308 0.397-0.557 0.526-0.248 0.13-0.565 0.195-0.95 0.195zM257.595 203.556h-0.978v-3.478h-0.746v-0.873h0.746v-1.839c0-0.631 0.142-1.114 0.425-1.45 0.284-0.336 0.703-0.504 1.257-0.505v0c0.147 0 0.31 0.021 0.488 0.063 0.179 0.042 0.336 0.112 0.468 0.211v0l-0.41 0.704c-0.063-0.063-0.133-0.107-0.21-0.133-0.077-0.024-0.154-0.036-0.231-0.035v0c-0.259 0-0.459 0.088-0.599 0.262-0.14 0.175-0.21 0.473-0.21 0.894v0 1.828h1.377v0.873h-1.377zM259.634 201.339v0c0-0.434 0.103-0.827 0.309-1.177 0.207-0.35 0.493-0.627 0.857-0.831 0.364-0.203 0.778-0.305 1.24-0.304v0c0.476 0 0.893 0.102 1.251 0.304 0.357 0.203 0.634 0.48 0.83 0.831 0.196 0.35 0.294 0.743 0.295 1.177v0c0 0.434-0.098 0.828-0.295 1.181-0.196 0.355-0.475 0.633-0.836 0.837-0.36 0.203-0.778 0.305-1.255 0.304v0c-0.462 0-0.874-0.097-1.236-0.29-0.36-0.192-0.644-0.462-0.851-0.809-0.206-0.346-0.309-0.754-0.309-1.223zM260.611 201.349v0c0 0.28 0.063 0.534 0.189 0.761 0.126 0.228 0.296 0.409 0.509 0.543 0.214 0.133 0.451 0.2 0.71 0.199v0c0.273 0 0.517-0.067 0.732-0.199 0.213-0.133 0.379-0.314 0.498-0.543 0.119-0.227 0.179-0.481 0.179-0.761v0c0-0.28-0.06-0.535-0.179-0.763-0.119-0.227-0.285-0.409-0.498-0.546-0.214-0.136-0.458-0.204-0.732-0.204v0c-0.266 0-0.507 0.07-0.721 0.21-0.213 0.14-0.381 0.324-0.504 0.551-0.122 0.228-0.183 0.479-0.183 0.752zM265.74 199.205h0.872l0.095 1.261-0.053-0.168c0.112-0.266 0.275-0.493 0.488-0.679 0.214-0.185 0.439-0.329 0.672-0.43 0.235-0.101 0.441-0.151 0.616-0.152v0l-0.052 0.967c-0.329-0.021-0.619 0.042-0.868 0.189-0.248 0.147-0.444 0.343-0.589 0.589-0.143 0.245-0.214 0.508-0.214 0.788v0 1.986h-0.967zM273.254 203.556v-7.598h4.94v0.977h-3.92v2.312h3.499v0.978h-3.499v2.354h4.067v0.977zM281.683 203.682h-0.053l-2.417-4.477h1.156l1.64 3.458-0.599-0.021 1.503-3.437h1.093zM286.969 203.661v0c-0.497 0-0.925-0.1-1.282-0.3-0.357-0.199-0.633-0.472-0.826-0.82-0.192-0.346-0.288-0.743-0.288-1.192v0c0-0.427 0.109-0.816 0.326-1.166 0.217-0.35 0.508-0.631 0.872-0.841 0.364-0.21 0.771-0.315 1.219-0.315v0c0.575 0 1.051 0.168 1.43 0.504 0.378 0.336 0.634 0.799 0.767 1.387v0l-3.584 1.262-0.231-0.578 2.942-1.072-0.21 0.136c-0.084-0.231-0.224-0.433-0.42-0.605-0.196-0.171-0.452-0.256-0.767-0.257v0c-0.266 0-0.504 0.064-0.715 0.194-0.21 0.13-0.375 0.308-0.494 0.532-0.119 0.224-0.179 0.48-0.179 0.767v0c0 0.301 0.063 0.565 0.19 0.792 0.126 0.228 0.299 0.408 0.519 0.538 0.221 0.129 0.472 0.193 0.752 0.194v0c0.189 0 0.373-0.035 0.551-0.105 0.179-0.07 0.346-0.161 0.5-0.274v0l0.452 0.725c-0.217 0.147-0.461 0.266-0.731 0.358-0.269 0.091-0.533 0.137-0.793 0.136zM290.416 199.205h0.873l0.094 1.261-0.052-0.168c0.112-0.266 0.275-0.493 0.487-0.679 0.214-0.185 0.439-0.329 0.673-0.43 0.235-0.101 0.441-0.151 0.616-0.152v0l-0.053 0.967c-0.329-0.021-0.619 0.042-0.868 0.189-0.248 0.147-0.444 0.343-0.588 0.589-0.143 0.245-0.214 0.508-0.215 0.788v0 1.986h-0.967zM295.703 205.648h-0.967l2.869-6.443h0.904zM296.575 203.094l-0.767 0.494-2.092-4.383h1.104zM301.22 203.661v0c-0.399 0-0.762-0.097-1.089-0.29-0.325-0.192-0.582-0.465-0.771-0.819-0.189-0.353-0.284-0.761-0.284-1.224v0c0-0.483 0.099-0.897 0.299-1.24 0.2-0.343 0.472-0.606 0.815-0.788 0.343-0.182 0.729-0.273 1.156-0.273v0c0.343 0 0.671 0.074 0.982 0.22 0.312 0.147 0.556 0.35 0.731 0.61v0l-0.042 0.347v-4.782h0.967v8.134h-0.977v-1.082l0.105 0.273c-0.203 0.266-0.466 0.485-0.788 0.656-0.322 0.172-0.69 0.259-1.104 0.258zM301.525 202.831v0c0.259 0 0.49-0.048 0.694-0.143 0.203-0.094 0.371-0.225 0.504-0.393 0.133-0.168 0.228-0.368 0.284-0.599v0-0.82c-0.056-0.21-0.156-0.394-0.301-0.552-0.143-0.157-0.315-0.283-0.515-0.379-0.199-0.094-0.421-0.141-0.666-0.141v0c-0.266 0-0.51 0.064-0.731 0.194-0.22 0.13-0.397 0.308-0.53 0.532-0.133 0.224-0.2 0.483-0.2 0.777v0c0 0.287 0.067 0.544 0.2 0.772 0.133 0.228 0.312 0.411 0.536 0.548 0.224 0.136 0.466 0.204 0.725 0.204zM307.495 203.661v0c-0.406 0-0.776-0.088-1.11-0.262-0.332-0.175-0.595-0.432-0.789-0.772-0.192-0.341-0.288-0.756-0.287-1.246v0c0-0.483 0.102-0.902 0.304-1.255 0.203-0.355 0.474-0.626 0.814-0.816 0.341-0.189 0.714-0.284 1.12-0.283v0c0.406 0 0.75 0.092 1.03 0.277 0.28 0.186 0.494 0.406 0.641 0.658v0l-0.063 0.168 0.095-0.925h0.903v4.351h-0.977v-1.135l0.105 0.252c-0.028 0.07-0.09 0.159-0.185 0.267-0.094 0.109-0.22 0.22-0.378 0.333-0.157 0.112-0.337 0.205-0.54 0.277-0.203 0.074-0.431 0.111-0.683 0.111zM307.757 202.852v0c0.245 0 0.466-0.046 0.662-0.136 0.196-0.091 0.359-0.219 0.488-0.385 0.13-0.164 0.22-0.362 0.269-0.593v0-0.851c-0.056-0.21-0.154-0.394-0.294-0.553-0.14-0.157-0.308-0.279-0.505-0.366-0.196-0.088-0.413-0.132-0.651-0.132v0c-0.259 0-0.497 0.063-0.715 0.189-0.217 0.126-0.391 0.301-0.521 0.526-0.129 0.224-0.193 0.487-0.194 0.788v0c0 0.28 0.067 0.536 0.2 0.767 0.133 0.231 0.312 0.413 0.536 0.546 0.224 0.133 0.466 0.2 0.725 0.2zM313.18 205.648h-0.967l2.869-6.443h0.904zM314.053 203.094l-0.768 0.494-2.091-4.383h1.103zM320.6 203.556v-7.598h1.019v6.621h3.857v0.977zM326.895 203.556v-4.351h0.978v4.351zM326.822 197.629v0c0-0.154 0.061-0.284 0.183-0.389 0.123-0.105 0.259-0.158 0.405-0.158v0c0.147 0 0.278 0.053 0.393 0.158 0.116 0.105 0.174 0.235 0.175 0.389v0c0 0.161-0.058 0.292-0.175 0.393-0.115 0.102-0.246 0.153-0.393 0.153v0c-0.147 0-0.282-0.053-0.405-0.157-0.122-0.105-0.183-0.235-0.183-0.389zM330.899 203.556h-0.977v-3.478h-0.746v-0.873h0.746v-1.839c0-0.631 0.142-1.114 0.425-1.45 0.284-0.336 0.703-0.504 1.257-0.505v0c0.147 0 0.31 0.021 0.487 0.063 0.179 0.042 0.336 0.112 0.469 0.211v0l-0.41 0.704c-0.063-0.063-0.133-0.107-0.21-0.133-0.077-0.024-0.154-0.036-0.231-0.035v0c-0.259 0-0.459 0.088-0.599 0.262-0.14 0.175-0.21 0.473-0.211 0.894v0 1.828h1.377v0.873h-1.377zM335.334 203.661v0c-0.497 0-0.925-0.1-1.282-0.3-0.357-0.199-0.633-0.472-0.826-0.82-0.192-0.346-0.288-0.743-0.288-1.192v0c0-0.427 0.109-0.816 0.326-1.166 0.217-0.35 0.508-0.631 0.872-0.841 0.364-0.21 0.771-0.315 1.22-0.315v0c0.575 0 1.051 0.168 1.429 0.504 0.378 0.336 0.634 0.799 0.767 1.387v0l-3.584 1.262-0.231-0.578 2.943-1.072-0.21 0.136c-0.084-0.231-0.224-0.433-0.421-0.605-0.196-0.171-0.452-0.256-0.767-0.257v0c-0.266 0-0.504 0.064-0.715 0.194-0.21 0.13-0.375 0.308-0.494 0.532-0.119 0.224-0.179 0.48-0.178 0.767v0c0 0.301 0.063 0.565 0.189 0.792 0.126 0.228 0.299 0.408 0.519 0.538 0.221 0.129 0.472 0.193 0.753 0.194v0c0.189 0 0.373-0.035 0.55-0.105 0.179-0.07 0.346-0.161 0.5-0.274v0l0.452 0.725c-0.217 0.147-0.461 0.266-0.731 0.358-0.269 0.091-0.533 0.137-0.793 0.136z" fill="#c56e33" fill-rule="nonzero" stroke="none" stroke-width="1" stroke-linecap="butt" stroke-linejoin="miter" stroke-miterlimit="10" stroke-dasharray="" stroke-dashoffset="0" font-family="none" font-weight="none" font-size="none" text-anchor="none" style="mix-blend-mode: normal" data-fill-palette-color="secondary"></path></g></g><g transform="matrix(1,0,0,1,29.33176499999999,53.457368272185725)"><svg viewBox="0 0 316.416 54.69849345562854" height="54.69849345562854" width="316.416"><g><svg viewBox="0 0 396.7095031128679 68.57874494274895" height="54.69849345562854" width="316.416"><g transform="matrix(1,0,0,1,0,9.477959684562268)"><svg viewBox="0 0 316.416 49.62282557362442" height="49.62282557362442" width="316.416"><g id="textblocktransform"><svg viewBox="0 0 316.416 49.62282557362442" height="49.62282557362442" width="316.416" id="textblock"><g><svg viewBox="0 0 316.416 49.62282557362442" height="49.62282557362442" width="316.416"><g transform="matrix(1,0,0,1,0,0)"><svg width="316.416" viewBox="2.5 -35 224.43 35.2" height="49.62282557362442" data-palette-color="#113946"><path d="M5.55-32.25L2.5-32.25 2.5-35 14.55-35Q21.3-35 25.38-31.08 29.45-27.15 29.45-18.3L29.45-18.3Q29.45-9.55 26.6-5.2L26.6-5.2Q24.1-1.4 18.8-0.4L18.8-0.4Q16.45 0 13.3 0L13.3 0 2.5 0 2.5-2.75 5.55-2.75 5.55-32.25ZM14.3-32.25L14.3-32.25 8.95-32.25 8.95-2.75 13.05-2.75Q19.7-2.75 22.2-5.2L22.2-5.2Q24.85-7.75 25.6-12.1L25.6-12.1Q26.05-14.65 26.05-18.05L26.05-18.05Q26.05-25.55 22.78-28.9 19.5-32.25 14.3-32.25ZM36.35-11.2L36.35-11.2Q36.35-6.75 38.9-4.73 41.45-2.7 44.85-2.7L44.85-2.7Q47.05-2.7 49.37-3.13 51.7-3.55 52.45-3.9L52.45-3.9 53.1-1.55Q51.95-0.8 49.32-0.3 46.7 0.2 44.52 0.2 42.35 0.2 40.62-0.25 38.9-0.7 37.1-1.85 35.3-3 34.25-5.45 33.2-7.9 33.2-11.45L33.2-11.45Q33.2-18.05 36.6-21.55L36.6-21.55Q40.15-25.2 44.85-25.2 49.55-25.2 52.02-22.6 54.5-20 54.5-15.3L54.5-15.3Q54.5-14.3 54.35-13.15L54.35-13.15 36.5-13.15Q36.35-12.1 36.35-11.2ZM51.5-15.65L51.5-15.65Q51.5-18.75 49.65-20.43 47.8-22.1 45.35-22.1L45.35-22.1Q42-22.1 39.8-20.08 37.6-18.05 36.85-15.1L36.85-15.1 51.5-15.1Q51.5-15.4 51.5-15.65ZM76.75-22.5L73.95-22.5 73.95-25 83.15-25 83.15-22.5 80.2-22.5 71.15 0 68.15 0 59.8-22.5 56.4-22.5 56.4-25 66.95-25 66.95-22.5 63.45-22.5 69.8-3.85 76.75-22.5ZM96.12 0.2Q90.89 0.2 87.67-2.8 84.44-5.8 84.44-11.98 84.44-18.15 87.87-21.68 91.29-25.2 96.49-25.2 101.69-25.2 104.94-22.2 108.19-19.2 108.19-13.03 108.19-6.85 104.77-3.33 101.34 0.2 96.12 0.2ZM96.42-22.3Q92.69-22.3 90.19-19.6 87.69-16.9 87.69-12.28 87.69-7.65 90.07-5.18 92.44-2.7 96.19-2.7 99.94-2.7 102.44-5.38 104.94-8.05 104.94-12.68 104.94-17.3 102.54-19.8 100.14-22.3 96.42-22.3ZM114.84-8.05L115.09-3.25Q117.19-2.6 118.47-2.6 119.74-2.6 120.14-2.65L120.14-2.65Q122.74-2.7 124.49-3.75 126.24-4.8 126.24-6.7 126.24-8.6 124.87-9.65 123.49-10.7 121.54-11.25 119.59-11.8 117.64-12.45 115.69-13.1 114.32-14.5 112.94-15.9 112.94-18.15L112.94-18.15Q112.94-21.35 115.39-23.28 117.84-25.2 121.59-25.2L121.59-25.2Q124.39-25.2 127.24-24.2L127.24-24.2 128.14-23.85 128.14-18.1 125.69-17.75 125.49-22Q123.49-22.3 122.14-22.3L122.14-22.3Q119.39-22.3 117.79-21.23 116.19-20.15 116.19-18.48 116.19-16.8 117.57-15.85 118.94-14.9 120.89-14.35 122.84-13.8 124.79-13.13 126.74-12.45 128.12-10.93 129.49-9.4 129.49-6.95L129.49-6.95Q129.49-3.65 127.02-1.73 124.54 0.2 119.99 0.2 115.44 0.2 112.44-1.95L112.44-1.95 112.44-7.7 114.84-8.05ZM151.59-3.15L151.59-7 136.59-7 135.74-9.75 151.59-33.1 154.99-33.1 154.99-9.75 157.29-9.75 157.34-7 154.99-7 154.99-2.45 158.39-2.25Q158.39-2.2 158.39-1.1L158.39-1.1 158.34 0 148.34 0.05Q148.34-1.9 148.39-2.15L148.39-2.15 150.99-2.5Q151.49-2.55 151.59-3.15L151.59-3.15ZM139.09-9.75L151.59-9.75 151.59-28.1 139.09-9.75ZM202.94 0L192.84 0 192.84-2.75 196.04-2.75 196.04-29.2 184.64-6.55 181.24-6.55 169.84-29.2 169.84-2.75 173.94-2.75 173.94 0 163.84 0 163.84-2.75 166.69-2.75 166.69-32.25 163.84-32.25 163.84-35 170.09-35 182.94-9.4 195.79-35 202.39-35 202.39-32.25 199.19-32.25 199.19-2.75 202.94-2.75 202.94 0ZM208.78-11.2L208.78-11.2Q208.78-6.75 211.33-4.73 213.88-2.7 217.28-2.7L217.28-2.7Q219.48-2.7 221.81-3.13 224.13-3.55 224.88-3.9L224.88-3.9 225.53-1.55Q224.38-0.8 221.76-0.3 219.13 0.2 216.96 0.2 214.78 0.2 213.06-0.25 211.33-0.7 209.53-1.85 207.73-3 206.68-5.45 205.63-7.9 205.63-11.45L205.63-11.45Q205.63-18.05 209.03-21.55L209.03-21.55Q212.58-25.2 217.28-25.2 221.98-25.2 224.46-22.6 226.93-20 226.93-15.3L226.93-15.3Q226.93-14.3 226.78-13.15L226.78-13.15 208.93-13.15Q208.78-12.1 208.78-11.2ZM223.93-15.65L223.93-15.65Q223.93-18.75 222.08-20.43 220.23-22.1 217.78-22.1L217.78-22.1Q214.43-22.1 212.23-20.08 210.03-18.05 209.28-15.1L209.28-15.1 223.93-15.1Q223.93-15.4 223.93-15.65Z" opacity="1" transform="matrix(1,0,0,1,0,0)" fill="#113946" class="wordmark-text-0" data-fill-palette-color="primary" id="text-0"></path></svg></g></svg></g></svg></g></svg></g><g transform="matrix(1,0,0,1,328.13075817011895,0)"><svg viewBox="0 0 68.57874494274895 68.57874494274895" height="68.57874494274895" width="68.57874494274895"><g data-palette-color="#c56e33"><rect width="18.744856951018047" height="68.57874494274895" fill="#c56e33" stroke="transparent" data-fill-palette-color="accent" x="0" fill-opacity="1"></rect><rect width="18.744856951018047" height="68.57874494274895" fill="#c56e33" stroke="transparent" data-fill-palette-color="accent" x="22.859581647582985" fill-opacity="0.75"></rect><rect width="18.744856951018047" height="68.57874494274895" fill="#c56e33" stroke="transparent" data-fill-palette-color="accent" x="45.71916329516597" fill-opacity="0.5"></rect></g></svg></g></svg></g></svg></g></svg></g><defs></defs></svg><rect width="375.07953" height="161.61323" fill="none" stroke="none" visibility="hidden"></rect></g></svg></g></svg>